<svg xmlns="http://www.w3.org/2000/svg" viewBox="0 0 180 160"><filter id="s"><feDropShadow dx="5" dy="6" stdDeviation="0" flood-color="#ffc1dc"/></filter><g filter="url(#s)" stroke="#2d2430" stroke-width="5"><path d="M83 76C42 23 4 48 31 89c15 22 39 10 52-13Z" fill="#8ec5ff"/><path d="M97 76c41-53 79-28 52 13-15 22-39 10-52-13Z" fill="#ff8fc4"/><path d="M81 85c-37 14-29 53 4 41 15-5 12-24-4-41Z" fill="#ff8fc4"/><path d="M99 85c37 14 29 53-4 41-15-5-12-24 4-41Z" fill="#8ec5ff"/><path d="M90 72c10 14 11 37 0 61-11-24-10-47 0-61Z" fill="#2d2430"/></g></svg>