<svg xmlns="http://www.w3.org/2000/svg" viewBox="0 0 190 190"><filter id="s"><feDropShadow dx="6" dy="7" stdDeviation="0" flood-color="#ffc1dc"/></filter><g filter="url(#s)"><path d="M94 25c45 0 76 33 70 77-6 39-37 66-75 63-41-3-70-31-67-72 3-39 31-68 72-68Z" fill="#111" stroke="#ff9ccc" stroke-width="8"/><circle cx="68" cy="83" r="11" fill="#fff"/><circle cx="119" cy="83" r="11" fill="#fff"/><circle cx="71" cy="84" r="4" fill="#111"/><circle cx="116" cy="84" r="4" fill="#111"/><path d="M68 119c19 16 39 15 55-1" fill="none" stroke="#fff" stroke-width="7" stroke-linecap="round"/><path d="M42 49c-10-16-4-25 10-15M145 48c12-14 24-7 10 11" fill="none" stroke="#ff9ccc" stroke-width="7" stroke-linecap="round"/></g></svg>